<?xml version="1.0" encoding="UTF-8"?>
<svg width="14px" height="14px" viewBox="0 0 14 14" version="1.1" xmlns="http://www.w3.org/2000/svg" xmlns:xlink="http://www.w3.org/1999/xlink">
    <!-- Generator: Sketch 48.2 (47327) - http://www.bohemiancoding.com/sketch -->
    <title>Shape</title>
    <desc>Created with Sketch.</desc>
    <defs></defs>
    <g id="Map/MapControls" stroke="none" stroke-width="1" fill="none" fill-rule="evenodd" transform="translate(-11.000000, -10.000000)">
        <g id="refresh-01" transform="translate(11.000000, 10.000000)" fill="#444444" fill-rule="nonzero">
            <path d="M13.1544,6.56226667 L12.6513333,0.765333333 L10.85,2.56666667 C9.6628,1.5232 8.12933333,0.933333333 6.53333333,0.933333333 C2.93066667,0.933333333 0,3.864 0,7.46666667 C0,11.0693333 2.93066667,14 6.53333333,14 C8.85826667,14 11.0264,12.7484 12.1921333,10.7342667 L10.5765333,9.8 C9.74306667,11.2392 8.19373333,12.1333333 6.53333333,12.1333333 C3.96013333,12.1333333 1.86666667,10.0398667 1.86666667,7.46666667 C1.86666667,4.89346667 3.96013333,2.8 6.53333333,2.8 C7.63373333,2.8 8.69026667,3.1948 9.52466667,3.892 L7.35746667,6.0592 L13.1544,6.56226667 Z" id="Shape"></path>
        </g>
    </g>
</svg>