<?xml version="1.0" encoding="utf-8"?>
<!-- Generator: Adobe Illustrator 22.1.0, SVG Export Plug-In . SVG Version: 6.00 Build 0)  -->
<svg version="1.1" id="Layer_1" xmlns="http://www.w3.org/2000/svg" xmlns:xlink="http://www.w3.org/1999/xlink" x="0px" y="0px"
	 width="20px" height="19.8px" viewBox="0 0 20 19.8" style="enable-background:new 0 0 20 19.8;" xml:space="preserve">
<style type="text/css">
	.st0{fill:#007BFF;}
</style>
<g id="export_26_">
	<g>
		<path class="st0" d="M18.5,11.3c-0.7,0-1.3,0.5-1.3,1.3v5H2.3V2.7h5c0.7,0,1.3-0.5,1.3-1.3S8.1,0,7.5,0H1.3C0.5,0,0,0.5,0,1.3
			v17.3c0,0.7,0.5,1.2,1.3,1.2h17.3c0.7,0,1.3-0.5,1.3-1.3v-6.1C19.8,11.7,19.3,11.3,18.5,11.3z M18.5,0h-6.1
			c-0.7,0-1.2,0.5-1.2,1.3c0,0.7,0.5,1.3,1.3,1.3h3.1l-9.1,8.9c-0.3,0.2-0.3,0.5-0.3,0.8c0,0.7,0.5,1.3,1.3,1.3
			c0.2-0.2,0.5-0.2,0.7-0.5l9.1-9.1v3.1c0,0.7,0.5,1.3,1.3,1.3c0.8,0,1.2-0.5,1.2-1.2V1.3C19.8,0.5,19.3,0,18.5,0z"/>
	</g>
</g>
</svg>
