<?xml version="1.0" encoding="UTF-8"?>
<svg width="14" height="17" viewBox="0 0 14 17" version="1.1" xmlns="http://www.w3.org/2000/svg" xmlns:xlink="http://www.w3.org/1999/xlink">
<title>pin-5</title>
<desc>Created using Figma</desc>
<g id="Canvas" transform="translate(-24438 1245)">
<g id="pin-5">
<g id="Shape">
<use xlink:href="#path0_fill" transform="translate(24438 -1245)" fill="#D3D3D3"/>
</g>
</g>
</g>
<defs>
<path id="path0_fill" fill-rule="evenodd" d="M 0 7C 0 3.09998 3.09961 0 7 0C 10.9004 0 14 3.09998 13.9004 7C 13.9004 8.90002 13.1992 10.7 11.8008 12C 11.8008 12.0566 10.4824 13.239 9.32227 14.2704C 8.43555 15.0576 7.64258 15.7567 7.59961 15.8C 7.30078 16.1 6.69922 16.1 6.30078 15.8L 4.33594 14.0228C 3.26758 13.0587 2.15234 12.0522 2.09961 12C 0.699219 10.7 0 8.90002 0 7ZM 5 7C 5 8.09998 5.90039 9 7 9C 8.09961 9 9 8.09998 9 7C 9 5.90002 8.09961 5 7 5C 5.90039 5 5 5.90002 5 7Z"/>
</defs>
</svg>
